<?xml version="1.0" encoding="UTF-8"?>
<svg id="b" data-name="Шар 2" xmlns="http://www.w3.org/2000/svg" viewBox="0 0 404.71 404.71">
  <defs>
    <style>
      .d {
        fill: #e30613;
      }
    </style>
  </defs>
  <g id="c" data-name="Шар 1">
    <g>
      <path class="d" d="m185.45,0H49.9C22.34,0,0,22.34,0,49.9v135.55C8.13,86.79,86.79,8.13,185.45,0Z"/>
      <path class="d" d="m404.71,185.45V49.9c0-27.56-22.34-49.9-49.9-49.9h-135.55c98.66,8.13,177.32,86.79,185.45,185.45Z"/>
      <path class="d" d="m0,219.26v135.55c0,27.56,22.34,49.9,49.9,49.9h135.55C86.79,396.57,8.13,317.92,0,219.26Z"/>
      <path class="d" d="m219.26,404.71h135.55c27.56,0,49.9-22.34,49.9-49.9v-135.55c-8.13,98.66-86.79,177.32-185.45,185.45Z"/>
    </g>
    <path class="d" d="m119.37,334.29c-9.35-.03-18.7-.16-28.04-.39-1.11-.03-2.73-.48-3.13-1.55-.4-1.06-.94-3.93.22-6,1.16-2.07,3.91-2.97,5.59-3.28,1.67-.31,4.76-.62,7.14-.58,2.67.05,3.82-1.09,4.25-3.65,1.64-9.71,3.29-19.42,5.18-29.09,3.01-15.39,6.37-30.72,9.3-46.13,3.32-17.51,6.25-35.1,9.51-52.62,1.94-10.4,4.28-20.72,6.28-31.1,3.46-17.97,6.75-35.97,10.21-53.94,1.57-8.17,3.35-16.3,5.06-24.45.95-4.56,0-6.43-4.39-8.39-.33-.15-.67-.28-.98-.45-2.36-1.33-4.69-5.49-3.94-7.51.99-2.68,3.71-2.54,5.82-2.57,10.67-.16,21.34-.06,32.01-.05,22.18,0,44.36.06,66.53-.01,15.82-.05,31.65-.26,47.47-.4,4.82-.04,5.14-.03,4.78,4.62-.65,8.41-1.69,16.78-2.63,25.16-1.24,10.98-2.54,21.96-3.82,32.94-.45,3.89-.89,7.79-1.36,11.68-.38,3.16-2.01,5.25-3.97,5.13-2.33-.14-4.72-2.57-4.95-5.36-.67-7.94-.66-15.99-1.99-23.81-1.25-7.31-2.9-14.85-6.13-21.44-4.96-10.11-14.18-15.85-25.37-17.15-8.4-.97-16.98-.57-25.47-.62-2.81-.02-5,.93-5.62,4.29-3.35,18.23-6.79,36.44-10.3,54.64-2.2,11.43-4.63,22.81-6.83,34.24-1.05,5.47-1.83,11-2.69,16.51-.27,1.7.05,3.3,2.17,3.33,8.94.11,18.02,1.45,26.6-2.36,9.92-4.4,16.69-11.95,20.76-21.73,3.06-7.33,5.39-14.96,8.04-22.46.32-.9.69-1.71.92-2.68s1.4-3.46,3.47-3.37c2.08.1,3.25,1.77,3.93,4.25.68,2.49.5,9.09-.25,13.47-1.43,8.42-3.79,16.68-5.36,25.08-3.47,18.56-6.68,37.17-10.03,55.75-.93,5.15-1.96,10.27-3.04,15.39-.29,1.38-.8,2.75-1.42,4.03-1.09,2.25-3.87,3.32-6.44,2.64-2.51-.66-1.96-2.72-1.93-4.4.16-9.27.6-18.54.59-27.81,0-6.44-.88-12.72-4.12-18.61-1.77-3.21-4.25-5.04-7.51-5.33-7.87-.71-15.78-1.14-23.68-1.32-4.75-.11-5.91,1.22-6.6,5.28-1.65,9.6-3.33,19.19-5.09,28.77-2.2,11.92-4.43,23.82-6.76,35.71-2.28,11.65-4.74,23.25-7.03,34.9-1.05,5.36-2.01,10.75-2.78,16.16-.6,4.23.12,5.26,4.42,5.25,10.53-.02,21.11.17,31.56-.85,4.48-.44,8.93-3.25,12.97-5.68,17.31-10.45,27.34-26.95,36.18-44.23,3.39-6.63,5.88-13.72,8.83-20.58.79-1.85,1.76-3.62,2.64-5.44.92-1.91,2.71-2.15,4.27-1.5,1.1.46,2.39,1.82,2.52,2.91.31,2.67.09,5.38-.14,8.12-.23,2.74-7.79,34.32-11.66,51.49-1.8,8-3.52,16.02-5.07,24.07-.47,2.44-1.86,2.61-3.82,2.61-14.98.03-29.97.12-44.95.16-12.11.03-24.22,0-36.33,0,0,.1-35.73.33-53.59.28Z"/>
  </g>
</svg>