<?xml version="1.0" encoding="utf-8"?>
<!-- Generator: Adobe Illustrator 27.6.1, SVG Export Plug-In . SVG Version: 6.00 Build 0)  -->
<svg version="1.1" id="b" xmlns="http://www.w3.org/2000/svg" xmlns:xlink="http://www.w3.org/1999/xlink" x="0px" y="0px"
	 viewBox="0 0 192.3 72.6" style="enable-background:new 0 0 192.3 72.6;" xml:space="preserve">
<style type="text/css">
	.st0{fill:#FFFFFF;}
</style>
<g id="c">
	<g>
		<path class="st0" d="M47.1,56.8c-3.7,0.2-7.5,0.5-11.2,1c-3.2,0.4-6.3,1.1-9.5,1.7c-2.8,0.6-1.5,0.4-4.3,1
			c-1.3,0.3-6.3-5.8-4.8-6.1c2.1-0.4,1.6-0.3,3.7-0.7c2.3-0.4,4.7-0.7,7-1c2.4-0.3,4.5-0.7,7.1-0.9s7.5-0.5,12-0.8
			s11.9,0.1,14.2,0.2s3.5,0.2,5.2,0.3c2.7,0.2,5.3,0.5,7.9,0.8c2.8,0.3,5.5,0.7,8.2,1.1c2.5,0.3,4.9,0.7,7.4,1.1
			c2.9,0.4,5.8,0.8,8.8,1.2c2.2,0.4,4.4,0.9,6.7,1.3c3.5,0.7,7,1.4,10.5,2.2c2.6,0.6,5.1,1.3,7.6,1.8c2.8,0.6,5.7,1.2,8.5,1.8
			c0.9,0.2,5.3,0.9,6.6,1c1.9,0.2,3.9,0.3,5.8,0.3c2.4-0.1,4.3-1.3,6-2.7c0.8-0.6,1.4-1.4,2-2.2c1.2-1.9,2.4-3.7,3.3-5.7
			c0.9-1.8,1.4-3.7,2.1-5.6c0.8-2.2,2.4-6.6,2.4-6.8s0.2-0.9,0-1s-0.5,0.2-0.6,0.4c-1.7,1.7-3.3,3.4-5.1,5.1
			c-1.1,1.1-2.3,2.1-3.8,2.6c-2.3,0.8-4.6,0.8-6.9-0.2c-1.1-0.5-1.7-1.4-1.9-2.5c-0.3-1.9,0-3.7,0.5-5.5c1.1-3.9,2.3-7.8,3.4-11.7
			c0.3-1.1,0.6-2.2,0.8-3.4c0-0.2,0.1-0.5-0.1-0.6s-0.4,0.1-0.6,0.2s-1.2,1.3-1.6,2.2c-0.5,1-1.3,1.4-2.3,1.2
			c-0.4-0.1-0.4-0.4-0.3-0.6s0.3-1.1,0.6-1.6s1.3-2,2-2.9c2.2-3,5.2-4.2,8.9-3.7c0.6,0.1,1.5,0.5,1.9,0.8s0.9,1.2,0.8,2
			c-0.2,1.2-0.3,2.5-0.6,3.7c-0.8,3.3-1.7,6.6-2.6,9.9c-0.4,1.6-1,3.1-1.4,4.6c-0.3,0.9-0.4,1.9-0.5,2.9c-0.1,0.9,0.4,1.3,1.3,1.2
			c0.8-0.1,1.5-0.5,2.1-1c1.1-0.9,2.1-1.9,3.1-2.9c1.6-1.6,2.9-3.4,4-5.4c0.7-1.3,1.2-2.8,1.6-4.2c0.9-3.1,1.8-6.2,2.6-9.3
			c0.1-0.5,0.2-1,0.3-1.5c0.1-0.5,0.4-0.8,0.9-0.9c2.4,0,4.8,0,7.1,0c0.9,0,1.1,0.3,0.9,1.1c-0.6,2.4-1.2,4.9-1.8,7.3
			c-0.8,2.9-1.6,5.7-2.4,8.5c-1,3.6-2.1,7.2-3.2,10.7c-0.6,2.2-1.4,4.3-2,6.5c-0.2,0.8-1.5,3.9-1.8,4.7c-1.8,4-4.2,7.5-7.9,10.1
			c-1.5,1.1-3.1,2-4.8,2.7c-2.4,0.9-5,1.4-7.7,1.5c-3.7,0.2-7.4,0.1-11.1-0.2c-3.6-0.3-7.2-0.9-10.8-1.6c-2.6-0.5-5.2-0.9-7.8-1.3
			c-3.4-0.6-6.9-1.1-10.3-1.6c-2.8-0.4-5.5-0.5-8.3-0.8c-2.9-0.3-5.9-0.7-8.8-0.8c-3.1-0.2-6.3-0.3-9.4-0.4c-2.6-0.1-2.9,0.1-7.7,0
			s-19.2,1.3-22.8,2.1s-3.6,0.8-7.4,1.7c-1.1,0.3-6.6-6.8-5.5-7c3.5-0.7,3.2-0.7,6.7-1.2c4.5-0.6,10.3-1.3,13.5-1.5
			s7.6-0.5,12.2-0.3s8.4,0.3,10.7,0.4s5,0.3,6.9,0.3c1.8,0.1,3.5,0.4,5.3,0.6c0.8,0.1,13.2,1.9,14.9,2.2c0.8,0.1,6.1,1.1,8,1.5
			c2.3,0.5,4.7,0.9,7.1,1.3c1.2,0.2,2.4,0.5,3.6,0.8c1.8,0.3,3.5,0.6,5.3,0.9c2.6,0.4,5.2,0.8,7.8,1.2c1.9,0.3,5.3-0.1,5.5-0.1
			s0.3,0,0.4-0.2s-0.2-0.2-0.3-0.3c-1.1-0.3-2.1-0.5-3.2-0.8c-1.2-0.3-12-2.2-14.5-2.6c-1.2-0.2-14.7-2.9-16.6-3.3
			c-2.5-0.5-5.1-1-7.6-1.4C96.7,59.8,86,58.2,85,58s-4.4-0.4-6.6-0.6c-1.4-0.1-9.9-0.7-15-0.8S51.1,56.6,47.1,56.8L47.1,56.8z"/>
		<path class="st0" d="M5.7,48.8c-1.7,0-3.4,0-5-0.1c-0.2,0-0.5-0.1-0.6-0.3s-0.2-0.7,0-1.1s0.7-0.5,1-0.6s0.9-0.1,1.3-0.1
			c0.5,0,0.7-0.2,0.8-0.7c0.3-1.7,0.6-3.5,0.9-5.2c0.5-2.8,1.1-5.5,1.7-8.3c0.6-3.1,1.1-6.3,1.7-9.4c0.3-1.9,0.8-3.7,1.1-5.6
			c0.6-3.2,1.2-6.5,1.8-9.7c0.3-1.5,0.6-2.9,0.9-4.4c0.2-0.8,0-1.2-0.8-1.5c-0.1,0-0.1,0-0.2-0.1c-0.4-0.2-0.8-1-0.7-1.4
			c0.2-0.5,0.7-0.5,1-0.5c1.9,0,3.8,0,5.7,0c4,0,8,0,11.9,0c2.8,0,5.7-0.1,8.5-0.1c0.9,0,0.9,0,0.9,0.8c-0.1,1.5-0.3,3-0.5,4.5
			c-0.2,2-0.5,3.9-0.7,5.9c-0.1,0.7-0.2,1.4-0.2,2.1c-0.1,0.6-0.4,0.9-0.7,0.9c-0.4,0-0.8-0.5-0.9-1c-0.1-1.4-0.1-2.9-0.4-4.3
			c-0.2-1.3-0.5-2.7-1.1-3.8c-0.9-1.8-2.5-2.8-4.5-3.1C27.3,2,25.7,2,24.2,2c-0.5,0-0.9,0.2-1,0.8c-0.6,3.3-1.2,6.5-1.9,9.8
			c-0.4,2.1-0.8,4.1-1.2,6.1c-0.2,1-0.3,2-0.5,3c0,0.3,0,0.6,0.4,0.6c1.6,0,3.2,0.3,4.8-0.4c1.8-0.8,3-2.1,3.7-3.9
			c0.5-1.3,1-2.7,1.4-4c0.1-0.2,0.1-0.3,0.2-0.5s0.2-0.6,0.6-0.6s0.6,0.3,0.7,0.8s0.1,1.6,0,2.4c-0.3,1.5-0.7,3-1,4.5
			c-0.6,3.3-1.2,6.7-1.8,10c-0.2,0.9-0.4,1.8-0.5,2.8c0,0.2-0.1,0.5-0.2,0.7c-0.2,0.4-0.7,0.6-1.2,0.5c-0.5-0.1-0.4-0.5-0.4-0.8
			c0-1.7,0.1-3.3,0.1-5c0-1.1-0.2-2.3-0.7-3.3c-0.3-0.6-0.8-0.9-1.4-1c-1.4-0.1-2.8-0.2-4.2-0.2c-0.9,0-1.1,0.2-1.2,1
			c-0.3,1.7-0.6,3.4-0.9,5.2c-0.4,2.1-0.8,4.3-1.2,6.4c-0.4,2.1-0.9,4.2-1.3,6.3c-0.2,1-0.4,1.9-0.5,2.9c-0.1,0.8,0,0.9,0.8,0.9
			c1.9,0,3.8,0,5.7-0.2c0.8-0.1,1.6-0.6,2.3-1c3.1-1.9,4.9-4.8,6.5-7.9c0.6-1.2,1.1-2.5,1.6-3.7c0.1-0.3,0.3-0.7,0.5-1
			c0.2-0.3,0.5-0.4,0.8-0.3c0.2,0.1,0.4,0.3,0.5,0.5c0.1,0.5,0,1,0,1.5s-1.4,6.2-2.1,9.2c-0.3,1.4-0.6,2.9-0.9,4.3
			c-0.1,0.4-0.3,0.5-0.7,0.5c-2.7,0-5.4,0-8.1,0c-2.2,0-4.4,0-6.5,0C15.3,48.8,8.9,48.9,5.7,48.8L5.7,48.8z"/>
		<path class="st0" d="M78.3,0.6c2.3,0,4.6,0,6.8,0c0.8,0,0.9,0.1,0.7,0.9c-0.3,1.4-0.7,2.8-1,4.2c-0.5,2.5-1,4.9-1.5,7.4
			c-0.3,1.4-0.7,2.8-1,4.2c-0.2,0.8-0.4,1.7-0.6,2.5c0,0.1-0.1,0.3-0.1,0.4c-0.1,0.6,0.1,0.7,0.7,0.5c1.6-0.7,3.3-1.5,5.1-1.6
			c3.7-0.2,7,0.7,9.5,3.6c1.6,1.8,2.3,4,2.6,6.4c0.2,1.8,0,3.5-0.5,5.2c-0.4,1.2-0.7,2.4-1.2,3.5c-0.8,1.8-1.9,3.3-3.2,4.8
			c-0.8,0.9-1.7,1.9-2.6,2.7c-2.5,2.3-5.4,4-8.9,4.7c-2.2,0.4-4.4,0.5-6.6,0.2c-2-0.3-3.8-1.2-5.5-2.4c-1.2-0.9-2.2-2.1-2.8-3.5
			c-0.8-1.9-1.1-3.8-0.7-5.8c0.6-3.1,1.3-6.2,1.9-9.3s1.3-6.2,1.9-9.3c0.5-2.5,1-5.1,1.5-7.7c0.4-1.8,0.8-3.7,1.2-5.5
			c0.2-1,0.4-1.9,0.6-2.9c0.1-0.4,0-0.5-0.4-0.6c-0.2,0-0.4,0-0.6,0c-1,0-1.9,0-2.9-0.1c-0.7,0-0.9-0.2-0.8-0.9c0-0.1,0-0.2,0.1-0.2
			c0.2-1.3,0.2-1.4,1.6-1.4C73.9,0.6,76.1,0.6,78.3,0.6L78.3,0.6L78.3,0.6z M75.1,44.8c0,0.5,0.1,0.8,0.2,1.3s0.8,1.8,1.9,2.2
			c2.1,0.7,5.9,0.2,7.3-2.4c0.5-1,0.9-2,1.2-3.1c0.4-1.1,0.7-2.3,1-3.4c1.1-3.6,2.3-7.1,3.3-10.7c0.5-1.7,0.8-3.4,0.5-5.2
			c-0.1-0.6-0.4-1.1-0.9-1.4c-0.9-0.6-1.9-0.9-2.9-0.8c-2.1,0.3-3.8,1.2-5.1,3c-1.2,1.7-2.1,3.6-2.7,5.6c-1,3.6-2.1,7.2-3.1,10.9
			C75.6,42.2,75.1,44.4,75.1,44.8L75.1,44.8z"/>
		<path class="st0" d="M101.6,38.2c0-2.4,0.7-4.5,1.2-5.9s1.9-3.9,3.4-5.6c2.6-3,5.6-5.3,9.2-6.8c2.4-1,4.9-1.5,7.4-0.6
			c1.1,0.4,2,1,2.7,2c0.3,0.4,0.5,0.4,0.7,0c0.1-0.2,0.2-0.5,0.3-0.8c0.2-0.7,0.7-0.8,1.3-0.8c1,0,2,0,3,0c1.3,0,2.6,0,3.9,0
			c0.9,0,1.2,0.3,1.1,1.1c0,0.3-0.1,0.6-0.2,0.9c-0.5,1.8-0.9,3.5-1.4,5.3c-0.8,3.1-1.5,6.2-2.3,9.3c-0.6,2.2-1.2,4.3-1.8,6.5
			c-0.2,0.8-0.3,1.6-0.4,2.5c-0.1,0.4,0,0.9,0.5,1.2c0.5,0.2,0.9,0,1.2-0.4c0.6-0.6,1.2-1.2,1.7-1.9c1.2-1.7,2.3-3.4,3.5-5.2
			c0.1-0.2,0.3-0.5,0.6-0.6c0.3-0.1,0.7-0.1,0.9,0.1c0.2,0.1,0.2,0.6,0.1,0.8c-0.2,0.7-0.5,1.2-0.9,1.9s-2.4,3.3-3.6,5
			c-0.1,0.1-1.4,1.6-2.2,2.2s-2.1,1.2-3.8,1.5s-3.3,0.1-4.6-1s-1.7-2.3-1.9-2.9c0-0.1,0,0-0.1-0.3s-0.3-0.5-0.4-0.5
			s-0.3,0.3-0.4,0.5c-2.3,3.4-6.4,5.1-10.3,3.9c-1.4-0.4-3.6-1.3-5.4-3.4S101.6,40.6,101.6,38.2L101.6,38.2z M124.7,25
			c0-0.6-0.1-1-0.1-1.3c0-0.8-0.3-1.5-0.9-2.1c-0.8-0.8-1.9-1-3-0.9c-1.7,0.1-3.2,1-4.2,2.4c-1.1,1.5-2,3.1-2.6,4.9
			c-0.5,1.9-4.2,15.4-4.1,18c0,0.6,0.3,1.8,1.7,2.1c0.4,0.1,1.9,0.5,2.9,0.1c1.9-0.7,3.4-1.9,4.5-3.5c1.1-1.6,1.9-3.4,2.4-5.3
			C122.2,36.6,124.6,26.9,124.7,25L124.7,25z"/>
		<path class="st0" d="M51.8,26.6c0,0.4,0,0.8,0.1,1.1c0,0.1,0,0.4,0.2,0.4s0.2-0.2,0.2-0.3s0.5-1,0.6-1.3s1.4-2.1,2-2.9
			s1.4-1.6,2.2-2.3c0.7-0.6,1.6-1,2.4-1.1s3.2-0.4,4.8,0.2c3,1.2,4.5,5.7,1.5,8.3c-2.7,2.4-6.3,1.1-7.3-1.8
			c-0.1-0.2-0.2-0.5-0.3-0.6c-0.1-0.1-0.3-0.3-0.5-0.2c-0.9,0.2-1.5,0.5-2.2,1.3s-1.9,3-2.4,4.7c-0.5,1.4-1.9,5.5-2.1,6.2
			c-0.3,1.2-0.8,2.3-1.1,3.5c-0.4,1.4-0.9,2.8-1.3,4.3c-0.2,0.8-0.5,1.7-0.7,2.5C47.7,48.8,47.5,49,47,49c-2.5,0-5.1,0-7.6,0
			c-0.7,0-0.8-0.2-0.6-0.8c0.1-0.6,0.3-1.2,0.4-1.7c0.7-2.5,1.4-5.1,2.1-7.6c0.6-2.1,1.2-4.1,1.7-6.2c0.3-1.5,0.6-3,0.8-4.5
			c0.1-1,0-2-0.2-2.9s-1.3-1-2-0.6c-0.3,0.2-0.6,0.5-0.8,0.7c-0.5,0.6-0.9,1.3-1.4,1.9c-0.5,0.7-1.3,0.9-2.1,1
			c-0.3,0-0.5-0.1-0.4-0.5c0.3-1,1-2.2,1.4-2.9s1.7-2.5,2.9-3.5c1.3-1,2.7-1.5,4.3-1.6c0.8,0,1.5,0,2.2,0.1c1.7,0.2,3.1,1.3,3.5,3
			C51.5,24.1,51.7,26.2,51.8,26.6L51.8,26.6z"/>
		<g>
			<path class="st0" d="M183.4,2h-2.2v5.7h-1.6V2h-2.2V0.7h6.1L183.4,2L183.4,2z"/>
			<path class="st0" d="M190.8,7.7V3.5L188.7,7H188l-2.1-3.4v4.1h-1.5v-7h1.3l2.6,4.3l2.6-4.3h1.3v7L190.8,7.7L190.8,7.7z"/>
		</g>
	</g>
</g>
</svg>
