<?xml version="1.0" encoding="UTF-8"?>
<svg id="b" data-name="Шар 2" xmlns="http://www.w3.org/2000/svg" viewBox="0 0 383.13 384">
  <g id="c" data-name="Шар 1">
    <path d="m203.48,384h-23.95c-.95-.22-1.89-.57-2.84-.64-20.18-1.47-39.62-6.12-58.26-13.92C34.83,334.43-12.35,248.33,2.81,158.67,15.84,81.62,76.99,18.78,153.68,3.84c8.78-1.71,17.72-2.58,26.59-3.84,7.73,0,15.47,0,23.2,0,.96.21,1.91.54,2.88.61,28.79,2.17,55.84,10.23,80.64,25.01,50.96,30.37,82.21,74.79,93.19,133.29,1.31,6.97,1.98,14.05,2.94,21.09v23.25c-.21,1.2-.47,2.4-.64,3.61-1.04,7.54-1.7,15.15-3.14,22.61-14.91,77.3-77.35,138.38-154.86,151.59-6.97,1.19-14.01,1.97-21.01,2.95Zm-36.03-179c0,2.15,0,3.64,0,5.13,0,25.12,0,50.24,0,75.37,0,6.62.86,7.48,7.58,7.5,8.86.02,17.71.02,26.57,0,7.58-.01,8.41-.83,8.41-8.33,0-25,0-49.99,0-74.99v-4.79c1.8,0,3.14,0,4.48,0,8.36,0,16.72-.03,25.07-.03,2.83,0,5.06-.87,5.08-4.13.07-11,.07-22,0-32.99-.02-2.92-1.9-4.2-4.66-4.23-4.37-.05-8.73-.03-13.1-.03-5.45,0-10.9,0-16.66,0,0-7.77-.06-15.11.02-22.46.07-7.14,3.09-10.32,10.2-10.61,6.73-.27,13.47-.3,20.2-.48,4.07-.11,5.38-1.33,5.41-5.43.05-9.37.04-18.75-.1-28.12-.06-4.04-1.47-5.42-5.5-5.45-8.98-.06-17.98-.28-26.94.13-21.95,1.01-37.3,12.15-43.31,31.74-1.7,5.52-2.3,11.49-2.63,17.3-.43,7.68-.11,15.41-.11,23.47-8.28,0-16.11-.02-23.94,0-5.33.02-6.55,1.24-6.57,6.67-.03,9-.01,18,0,27,0,7.03.72,7.76,7.66,7.77,7.46,0,14.91,0,22.85,0Z"/>
  </g>
</svg>