<?xml version="1.0" encoding="UTF-8"?>
<svg id="b" data-name="Шар 2" xmlns="http://www.w3.org/2000/svg" viewBox="0 0 374.26 374.27">
  <g id="c" data-name="Шар 1">
    <g>
      <path d="m374.26,186.92c.1,103.26-83.6,187.18-186.84,187.34C84.05,374.43,0,290.51,0,187.14,0,83.9,83.79.06,187.02,0c103.26-.06,187.14,83.68,187.24,186.92Zm-302.4.21c-.11,0-.21,0-.32,0,0,14.09-.1,28.19.05,42.28.05,5.35.28,10.74,1.08,16.02,3.51,22.99,14.68,40.53,36.73,49.91,10.23,4.35,21.05,6.14,32.09,6.19,29.18.12,58.37.12,87.55-.02,6.33-.03,12.74-.4,18.98-1.45,23.43-3.95,40.82-15.91,49.55-38.74,3.64-9.53,5.14-19.49,5.15-29.67.02-28.81.06-57.62-.04-86.43-.02-5.47-.27-10.99-1.09-16.39-3.66-23.93-15.57-41.74-38.8-50.75-9.39-3.65-19.25-5.28-29.27-5.32-30.93-.14-61.86-.17-92.79,0-11.55.07-22.83,2.13-33.39,7.09-23.39,10.98-33.75,30.73-35.27,55.31-1.07,17.27-.21,34.65-.21,51.98Z"/>
      <path d="m187.02,94.37c15.47,0,30.94-.14,46.4.08,4.95.07,9.98.69,14.8,1.81,18.38,4.29,30.19,17.7,32.44,36.52.5,4.2.75,8.45.76,12.68.06,28.57.24,57.14-.12,85.7-.09,6.87-1.13,14.02-3.31,20.51-5.73,17.06-18.61,26.31-36.14,27.3-21.89,1.24-43.87,1.09-65.81,1.18-13.96.06-27.97.06-41.88-.94-27.82-2.01-40.42-20.62-41.02-43.71-.84-32.29-.47-64.62,0-96.92.1-6.65,2.11-13.61,4.72-19.81,6.34-15.03,18.86-22.41,34.57-23.57,15.15-1.12,30.4-.89,45.61-1.22,2.99-.07,5.99,0,8.98,0,0,.13,0,.26,0,.38Zm-60.71,92.65c-.15,33.62,26.84,60.7,60.73,60.94,33.38.23,60.77-26.89,60.93-60.34.16-33.82-26.75-61.15-60.36-61.31-33.99-.16-61.15,26.75-61.31,60.71Zm121.89-48.32c6.69.08,12.19-5.25,12.28-11.89.09-6.68-5.22-12.19-11.86-12.33-6.88-.14-12.45,5.26-12.46,12.08-.02,6.71,5.28,12.05,12.04,12.13Z"/>
      <path d="m187.58,147.91c21.87.36,39.18,18.07,38.78,39.67-.4,21.89-18.06,39.15-39.68,38.78-21.83-.37-39.19-18.12-38.79-39.67.4-21.87,18.07-39.14,39.69-38.78Z"/>
    </g>
  </g>
</svg>