<?xml version="1.0" encoding="UTF-8"?>
<svg id="b" data-name="Шар 2" xmlns="http://www.w3.org/2000/svg" viewBox="0 0 384 384">
  <g id="c" data-name="Шар 1">
    <g>
      <path d="m204,384h-24c-4.69-.58-9.38-1.08-14.06-1.74-35.42-5.04-67.24-18.54-94.89-41.27-36.7-30.18-59.56-68.68-68.07-115.53-1.29-7.1-2.01-14.3-2.99-21.46,0-8,0-16,0-24,.3-2.46.64-4.92.91-7.38,4.52-41.49,20.43-78.02,48.44-108.98C78.99,30.88,115.66,10.47,159.3,2.9,166.16,1.71,173.1.95,180,0c8,0,16,0,24,0,.96.21,1.91.54,2.88.61,29.9,2.23,57.88,10.82,83.38,26.51,49.56,30.51,80.09,74.4,90.78,131.78,1.3,6.97,1.98,14.05,2.95,21.09v24c-.56,4.57-1.05,9.15-1.69,13.7-5.4,38.37-20.7,72.3-46.42,101.26-29.62,33.35-66.48,54.14-110.45,62.06-7.09,1.28-14.29,2-21.44,2.97Zm-12.24-66.84c1.76-1.93,2.98-3.17,4.09-4.51,14.19-17.27,28.76-34.25,42.43-51.93,15.29-19.77,28.96-40.66,39.48-63.47,7.71-16.72,11.47-33.85,7.85-52.36-7.42-37.98-36.48-67.93-74.08-75.79-37.6-7.86-76.2,7.53-97.98,39.46-12.51,18.34-18.5,38.69-15.98,60.97,1.37,12.16,6.33,23.3,11.77,34.16,13.95,27.86,32.32,52.77,51.74,76.94,9.84,12.25,20.2,24.09,30.68,36.53Z"/>
      <path d="m228.02,160.65c-.06,19.84-16.2,35.89-36.07,35.87-19.99-.02-36.08-16.3-35.96-36.37.12-19.81,16.34-35.76,36.26-35.67,19.83.09,35.83,16.26,35.77,36.17Z"/>
    </g>
  </g>
</svg>