<?xml version="1.0" encoding="utf-8"?>
<!-- Generator: Adobe Illustrator 27.6.1, SVG Export Plug-In . SVG Version: 6.00 Build 0)  -->
<svg xmlns="http://www.w3.org/2000/svg" viewBox="0 0 2942.7 772.1" xml:space="preserve"><path fill="#ffffff" d="M313.5 85.1V40.3c0-22.4-18.4-40.3-40.9-40.3s-40.3 18.4-40.3 40.3v44.3C101.3 104.1 0 216.9 0 353.2c0 149.6 122 271.5 271.5 271.5S543 502.7 543 353.2C542.5 218 443 105.9 313.5 85.1zm-41.9 490.2c-122.5 0-222.1-99.5-222.1-222.1 0-108.7 78.8-199.6 183-218v48.3c0 13.2 6.3 25.3 16.1 32.8v40.9h-91.5c-10.4 0-20.1 5.2-25.9 14.4-5.2 9.2-5.7 20.1-.6 29.3l115.6 220.3c5.2 9.8 15.5 16.1 26.5 16.1 11.5 0 21.3-6.3 26.5-16.1l115.6-220.4c4.6-9.2 4.6-20.7-1.1-29.3-5.2-8.6-15-14.4-25.3-14.4h-91.5v-40.9c10.4-7.5 16.7-19.6 16.7-32.8v-48.3C415.9 155.3 493 245.7 493 353.2c0 122.6-99.5 222.1-221.4 222.1zm1648.8-94.9h-89.2V372.8h75.9v-94.4h-75.9v-92.6h80.5V86.9h-201.9v492.5h210.6v-99zm-918.2-295.2h38v393.5H1161V86.9H881.4v491.9h120.8V185.2zM841.1 481h-89.8V372.8h76.5v-94.4h-76.5v-93.8h82.3V86.9H628.8v491.9h212.3V481zm1240.4-107.6h37.4v206h121.4v-492h-121.4V264h-37.4V87.4h-120.8v491.9h120.8V373.4zm270.4 205.9h120.8V185.8h72.5V87.5H2280v98.4h71.9v393.4zM1322.1 86.9h-120.8v491.9h120.8V86.9zm348 393.5h-25.9V86.9h-122v393.5h-38V86.9h-122v491.3h223.2v48.3h84.6l.1-146.1zm1172-323.9c-2.9-15-9.2-27-17.8-37.4-9.2-10.4-22.4-18.4-40.3-23.6-17.8-5.8-43.1-8.1-75.9-8.1h-122.5v491.9h120.8V380.9h32.8c26.5 0 48.3-4 64.4-11.5 16.7-7.5 27.6-19 33.9-33.4 6.3-14.4 9.2-37.4 9.2-68.5v-43.1c0-30.5-1.8-53.5-4.6-67.9zm-123.7 130.6c-35.1 0-63.9-28.8-63.9-63.9s28.8-63.9 63.9-63.9 63.9 28.8 63.9 63.9c-.1 35.7-28.8 63.9-63.9 63.9z"></path><path fill="#ffffff" d="M2718.4 174.9c-27 0-48.9 21.9-48.9 48.3 0 27 21.9 48.3 48.9 48.3s48.9-21.9 48.9-48.3c-.6-26.4-22.5-48.3-48.9-48.3zm8.6 80.5-13.8-26.5v26.5H2693v-63.3h20.1v27l13.2-27h23.6l-17.3 31.6 19.6 32.2-25.2-.5z"></path><g fill="#ffffff"><path d="m2923.8 140.9-6.3-10.4c-1.1-1.7-2.3-3.4-4-4.6 1.7-.6 3.4-1.7 4.6-2.9 2.3-2.3 2.9-5.2 2.9-8.1 0-2.3-.6-4.6-1.7-6.9-1.1-2.3-2.9-3.4-5.2-4.6-2.3-.6-4.6-1.1-8.6-1.1h-19v42h9.8v-16.7h5.8c.6 0 1.1.6 1.7.6s1.1.6 1.7 1.7c1.1 1.1 2.3 2.9 3.4 5.2l5.2 7.5.6 1.1h11.5l-2.4-2.8zm-12.7-23.5c-.6.6-1.1 1.1-1.7 1.1-1.1.6-2.3.6-4.6.6h-8.6V111h9.8c2.3 0 4 .6 4.6 1.1.6.6 1.1 1.7 1.1 2.9 0 .6-.6 1.2-.6 2.4z"></path><path d="M2934.7 123.7c0 16.7-13.8 30.5-30.5 30.5s-30.5-13.8-30.5-30.5 13.8-30.5 30.5-30.5c16.7-.6 30.5 13.2 30.5 30.5zm-30.5-38.6c-21.3 0-38.6 17.3-38.6 38.6s17.3 38.6 38.6 38.6 38.6-17.3 38.6-38.6-17.9-38.6-38.6-38.6z"></path></g><g fill="#ffffff"><path d="M1767.2 736.3v-71.1c0-2.5-1.2-4.4-3.6-5.8s-5.5-2.1-9.3-2.1c-3.9 0-7.1.7-9.5 2.1s-3.6 3.3-3.6 5.8v71.1h-22.9v-94.7h22.9v5.7c6.4-5 13.8-7.5 22.2-7.5 10.6 0 18.2 3.6 22.7 10.9 7.3-7.3 15.9-10.9 25.9-10.9 8 0 14.4 2.2 19.2 6.7 4.8 4.5 7.2 10.7 7.2 18.7v71.1h-22.7v-71.1c0-2.5-1.2-4.4-3.6-5.8s-5.5-2.1-9.3-2.1c-3.6 0-6.6.7-9 2-2.4 1.3-3.8 3-4 5.2v71.8h-22.6zM1898 672h-22.7v-3.4c0-8.6 3.4-15.5 10.1-20.8s15.3-8 25.8-8 19.1 2.7 25.8 8 10.1 12.3 10.1 20.7v67.7h-22.9v-5.9c-6.6 5.1-14.1 7.7-22.5 7.7-8 0-14.4-2.2-19.3-6.6-4.9-4.4-7.3-10.6-7.3-18.6V707c0-8.5 3.3-15.2 9.9-20.4s15.3-7.9 26-8.4l13.2-.5v-10.5c0-3-1.2-5.4-3.7-7.2-2.4-1.8-5.6-2.7-9.4-2.7-3.9 0-7.1.9-9.6 2.7-2.4 1.8-3.7 4.2-3.7 7.2l.2 4.8zm26.3 40.7v-17.5l-12.7.5c-4.3.2-7.7 1.2-10.1 3s-3.7 4.2-3.7 7.2v7c0 2.4 1.2 4.3 3.6 5.6s5.7 2.1 9.8 2.1c3.8 0 6.9-.7 9.4-2.1 2.5-1.5 3.7-3.4 3.7-5.8zM2007.8 672v64.3h-22.9v-94.7h22.9v9.5c8.2-7.5 17.2-11.3 26.8-11.3v19.1c-7.8 0-14.1 1.2-19.2 3.7-5.1 2.4-7.6 5.6-7.6 9.4zM2068.2 736.3V611.2h22.9v69.9l22.9-39.5h24.7l-27.2 45.9 30.7 48.8h-24.8l-26.3-42.7v42.7h-22.9zM2169.7 709.3v-40.8c0-8.6 3.4-15.5 10.2-20.8s15.4-8 25.9-8c10.6 0 19.3 2.7 26 8s10.1 12.2 10.1 20.8v28.2h-49.5v13.9c0 3 1.2 5.4 3.8 7.2s5.7 2.7 9.6 2.7 7.1-.9 9.6-2.7 3.8-4.2 3.8-7.2v-3.9h22.7v2.5c0 8.6-3.4 15.5-10.1 20.8s-15.4 8-26 8c-10.5 0-19.1-2.7-25.9-8-6.8-5.2-10.2-12.1-10.2-20.7zm45.7-49.3c-2.5-1.8-5.7-2.7-9.6-2.7s-7.1.9-9.6 2.7-3.8 4.2-3.8 7.2v12.2h26.8v-12.2c0-3-1.3-5.4-3.8-7.2zM2329.8 718.8v17.5h-8.6c-10 0-18.2-2.5-24.6-7.4-6.4-4.9-9.6-11.4-9.6-19.4v-50.4h-17.9v-17.5h17.9v-19.7h22.7v19.7h20v17.5h-20v50.4c0 2.9 1.1 5.1 3.2 6.8 2.1 1.7 4.9 2.5 8.2 2.5h8.7zM2364.8 772.1V641.6h22.9v5.9c6.7-5.1 14-7.7 22-7.7 8.2 0 14.8 2.4 19.8 7.3 4.9 4.9 7.4 11.4 7.4 19.7v44.3c0 8.2-2.5 14.8-7.4 19.7-4.9 4.9-11.5 7.3-19.8 7.3s-15.6-2.5-22-7.5v41.5h-22.9zm35.8-51.5c4.1 0 7.3-1 9.8-2.9 2.5-1.9 3.8-4.1 3.8-6.6v-44.3c0-2.5-1.2-4.7-3.8-6.6-2.5-1.9-5.8-2.9-9.8-2.9-3.6 0-6.6.7-9.1 2.1s-3.8 3.3-3.8 5.7v47.5c0 2.4 1.2 4.3 3.8 5.7s5.5 2.3 9.1 2.3zM2510.5 718.8v17.5h-3.8c-9.9 0-17.8-2.3-23.6-6.9-5.8-4.6-8.8-10.6-8.8-18.1V611.2h22.9v100.1c0 5 3.2 7.5 9.5 7.5h3.8zM2562.7 672H2540v-3.4c0-8.6 3.4-15.5 10.1-20.8s15.3-8 25.8-8 19.1 2.7 25.8 8 10.1 12.3 10.1 20.7v67.7h-22.9v-5.9c-6.6 5.1-14.1 7.7-22.5 7.7-8 0-14.4-2.2-19.3-6.6-4.9-4.4-7.3-10.6-7.3-18.6V707c0-8.5 3.3-15.2 9.9-20.4 6.6-5.1 15.3-7.9 26-8.4l13.2-.5v-10.5c0-3-1.2-5.4-3.7-7.2-2.4-1.8-5.6-2.7-9.4-2.7-3.9 0-7.1.9-9.6 2.7s-3.7 4.2-3.7 7.2l.2 4.8zm26.2 40.7v-17.5l-12.7.5c-4.3.2-7.7 1.2-10.1 3-2.4 1.8-3.7 4.2-3.7 7.2v7c0 2.4 1.2 4.3 3.6 5.6 2.4 1.4 5.7 2.1 9.8 2.1 3.8 0 6.9-.7 9.4-2.1 2.5-1.5 3.7-3.4 3.7-5.8zM2697.9 673.8v-6.6c0-3-1.2-5.4-3.8-7.2s-5.7-2.7-9.6-2.7-7.1.9-9.6 2.7-3.8 4.2-3.8 7.2v43.6c0 3 1.2 5.4 3.8 7.2s5.7 2.7 9.6 2.7 7.1-.9 9.6-2.7 3.8-4.2 3.8-7.2v-6.6h22.7v5.2c0 8.6-3.4 15.5-10.1 20.8s-15.4 8-26 8c-10.5 0-19.1-2.7-25.9-8-6.8-5.3-10.2-12.2-10.2-20.8v-40.8c0-8.6 3.4-15.5 10.2-20.8s15.4-8 25.9-8c10.6 0 19.3 2.7 26 8s10.1 12.2 10.1 20.8v5.2h-22.7zM2755.8 709.3v-40.8c0-8.6 3.4-15.5 10.2-20.8s15.4-8 25.9-8c10.6 0 19.3 2.7 26 8s10.1 12.2 10.1 20.8v28.2h-49.5v13.9c0 3 1.2 5.4 3.8 7.2s5.7 2.7 9.6 2.7 7.1-.9 9.6-2.7 3.8-4.2 3.8-7.2v-3.9h22.7v2.5c0 8.6-3.4 15.5-10.1 20.8s-15.4 8-26 8c-10.5 0-19.1-2.7-25.9-8-6.8-5.2-10.2-12.1-10.2-20.7zm45.8-49.3c-2.5-1.8-5.7-2.7-9.6-2.7s-7.1.9-9.6 2.7-3.8 4.2-3.8 7.2v12.2h26.8v-12.2c-.1-3-1.3-5.4-3.8-7.2z"></path></g></svg>
