<?xml version="1.0" encoding="UTF-8"?>
<svg id="b" data-name="Шар 2" xmlns="http://www.w3.org/2000/svg" viewBox="0 0 35.01 35.01">
  <defs>
    <style>
      .d, .e {
        fill: none;
        stroke: #0d0d0d;
        stroke-linejoin: round;
        stroke-width: 2.56px;
      }

      .f {
        fill: #0d0d0d;
      }

      .e {
        stroke-linecap: round;
      }
    </style>
  </defs>
  <g id="c" data-name="OBJECTS">
    <g>
      <path class="f" d="m17.51,2.56c8.26,0,14.95,6.69,14.95,14.95s-6.69,14.95-14.95,14.95S2.56,25.76,2.56,17.51,9.25,2.56,17.51,2.56m0-2.56C7.85,0,0,7.85,0,17.51s7.85,17.51,17.51,17.51,17.51-7.85,17.51-17.51S27.16,0,17.51,0h0Z"/>
      <polyline class="e" points="17.11 1.77 17.11 17.51 27.93 28.32"/>
      <line class="d" x1="17.51" y1="8.85" x2="23.01" y2="3.34"/>
      <line class="d" x1="17.51" y1="15.15" x2="27.73" y2="4.92"/>
      <line class="d" x1="19.08" y1="19.87" x2="30.88" y2="8.07"/>
      <line class="d" x1="22.23" y1="23.01" x2="32.85" y2="12.39"/>
      <line class="d" x1="25.37" y1="26.16" x2="33.63" y2="17.9"/>
    </g>
  </g>
</svg>