<?xml version="1.0" encoding="utf-8"?>
<!-- Generator: Adobe Illustrator 27.6.1, SVG Export Plug-In . SVG Version: 6.00 Build 0)  -->
<svg version="1.1" id="Шар_1" xmlns="http://www.w3.org/2000/svg" xmlns:xlink="http://www.w3.org/1999/xlink" x="0px" y="0px"
	 viewBox="0 0 180.9 133.8" style="enable-background:new 0 0 180.9 133.8;" xml:space="preserve">
<style type="text/css">
	.st0{display:none;opacity:0.2;fill:#E30613;}
	.st1{display:none;}
	.st2{display:inline;fill:#E30613;}
	.st3{fill:#E30613;}
	.st4{display:inline;}
	.st5{fill:#FFFFFF;}
	.st6{fill:none;stroke:#FFFFFF;stroke-width:2.56;stroke-linecap:round;stroke-linejoin:round;}
</style>
<path class="st0" d="M202.3,73.4c-4.9,42.1-67.6,64.3-105.1,69C29.3,151-53,114.4-56.1,72c-3.3-46.1,86-106.5,162.6-90.5
	C153.2-8.8,207.2,31.8,202.3,73.4z"/>
<g id="Шар_2_00000074410762884073326880000012940983788906748060_" class="st1">
	<path class="st2" d="M180.8,63c-1.5,35.2-50.8,67.1-95.2,70.5C35.4,137.4-26.5,106.4-31,58.8c-3.2-34.1,24-67.2,53.2-80
		C87.2-49.9,182.9,12.6,180.8,63z"/>
</g>
<circle class="st3" cx="65" cy="22.3" r="111.5"/>
<g id="b" class="st1">
	<g id="c" class="st4">
		<g>
			<path class="st5" d="M92.1,67.2v24.1h-8.7V67.2H92.1 M92.1,61h-8.7c-3.4,0-6.2,2.8-6.2,6.2v24.1c0,3.4,2.8,6.2,6.2,6.2h8.7
				c3.4,0,6.2-2.8,6.2-6.2V67.2C98.3,63.8,95.5,61,92.1,61L92.1,61z"/>
			<path class="st5" d="M118.4,51.9v39.4h-8.7V51.9H118.4 M118.4,45.7h-8.7c-3.4,0-6.2,2.8-6.2,6.2v39.4c0,3.4,2.8,6.2,6.2,6.2h8.7
				c3.4,0,6.2-2.8,6.2-6.2V51.9C124.5,48.5,121.8,45.7,118.4,45.7L118.4,45.7z"/>
			<path class="st5" d="M65.9,32.2v59h-8.7v-59L65.9,32.2 M65.9,26.1h-8.7c-3.4,0-6.2,2.8-6.2,6.2v59c0,3.4,2.8,6.2,6.2,6.2h8.7
				c3.4,0,6.2-2.8,6.2-6.2v-59C72.1,28.8,69.3,26.1,65.9,26.1L65.9,26.1z"/>
		</g>
	</g>
</g>
<g id="c_00000036211240944993144670000000957949954115183772_" class="st1">
	<g class="st4">
		<path class="st6" d="M120.2,47.9c1.8,4.2,2.8,8.8,2.8,13.7c0,19-15.4,34.4-34.4,34.4c-8.8,0-16.8-3.3-22.9-8.7"/>
		<path class="st6" d="M57.7,76.8c-2.2-4.6-3.5-9.7-3.5-15.2c0-19,15.4-34.4,34.4-34.4c9.3,0,17.7,3.7,23.9,9.6"/>
		<line class="st6" x1="82.3" y1="57" x2="93.6" y2="68.3"/>
		<line class="st6" x1="64" y1="76.8" x2="74.8" y2="57.4"/>
		<path class="st5" d="M78.2,48.8c0.1,0,0.2,0,0.4,0c1.9,0.2,3.3,1.9,3.1,3.8c-0.2,1.8-1.7,3.1-3.4,3.1c-0.1,0-0.2,0-0.4,0
			c-1.9-0.2-3.3-1.9-3.1-3.8C74.9,50.2,76.4,48.8,78.2,48.8 M78.2,43.2L78.2,43.2c-4.7,0-8.6,3.5-9.1,8.2c-0.5,5,3.2,9.5,8.2,10
			c0.3,0,0.6,0,0.9,0c4.7,0,8.6-3.5,9.1-8.2c0.2-2.4-0.5-4.8-2-6.7c-1.5-1.9-3.7-3-6.1-3.3C78.8,43.2,78.5,43.2,78.2,43.2
			C78.2,43.2,78.2,43.2,78.2,43.2z"/>
		<path class="st5" d="M60.9,78.9c0.1,0,0.2,0,0.4,0c1.9,0.2,3.3,1.9,3.1,3.8c-0.2,1.8-1.7,3.1-3.4,3.1c-0.1,0-0.2,0-0.4,0
			c-1.9-0.2-3.3-1.9-3.1-3.8C57.6,80.3,59.1,78.9,60.9,78.9 M60.9,73.3L60.9,73.3c-4.7,0-8.6,3.5-9.1,8.2c-0.5,5,3.2,9.5,8.2,10
			c0.3,0,0.6,0,0.9,0c4.7,0,8.6-3.5,9.1-8.2c0.2-2.4-0.5-4.8-2-6.7c-1.5-1.9-3.7-3-6.1-3.3C61.5,73.3,61.2,73.3,60.9,73.3
			C60.9,73.3,60.9,73.3,60.9,73.3z"/>
		<line class="st6" x1="102.4" y1="65.9" x2="112.8" y2="47.1"/>
		<path class="st5" d="M116.3,38.4c0.1,0,0.2,0,0.4,0c1.9,0.2,3.3,1.9,3.1,3.8c-0.2,1.8-1.7,3.1-3.4,3.1c-0.1,0-0.2,0-0.4,0
			c-1.9-0.2-3.3-1.9-3.1-3.8C113,39.8,114.5,38.5,116.3,38.4 M116.3,32.8L116.3,32.8c-4.7,0-8.6,3.5-9.1,8.2c-0.2,2.4,0.5,4.8,2,6.7
			c1.5,1.9,3.7,3,6.1,3.3c0.3,0,0.6,0,0.9,0c4.7,0,8.6-3.5,9.1-8.2c0.5-5-3.2-9.5-8.2-10C116.9,32.8,116.6,32.8,116.3,32.8
			C116.3,32.8,116.3,32.8,116.3,32.8z"/>
		<path class="st5" d="M99,68.6c0.1,0,0.2,0,0.4,0c1.9,0.2,3.3,1.9,3.1,3.8c-0.2,1.8-1.7,3.1-3.4,3.1c-0.1,0-0.2,0-0.4,0
			c-1.9-0.2-3.3-1.9-3.1-3.8C95.7,69.9,97.2,68.5,99,68.6 M99,62.9L99,62.9c-4.7,0-8.6,3.5-9.1,8.2c-0.2,2.4,0.5,4.8,2,6.7
			c1.5,1.9,3.7,3,6.1,3.3c0.3,0,0.6,0,0.9,0c4.7,0,8.6-3.5,9.1-8.2c0.5-5-3.2-9.5-8.2-10C99.6,62.9,99.3,62.9,99,62.9
			C99,62.9,99,62.9,99,62.9z"/>
	</g>
</g>
<g id="c_00000098901657686766931440000006946517193619192480_" class="st1">
	<g class="st4">
		<path class="st5" d="M89.1,29.6c17.3,0,31.3,14,31.3,31.3s-14,31.3-31.3,31.3s-31.3-14-31.3-31.3S71.8,29.6,89.1,29.6 M89.1,24.3
			c-20.2,0-36.6,16.4-36.6,36.6s16.4,36.6,36.6,36.6s36.6-16.4,36.6-36.6S109.2,24.3,89.1,24.3L89.1,24.3z"/>
		<path class="st5" d="M110.8,84.8c-0.3,0-0.7-0.1-0.9-0.4L87.3,61.8c-0.2-0.2-0.4-0.6-0.4-0.9V28c0-0.7,0.6-1.3,1.3-1.3
			s1.3,0.6,1.3,1.3v32.4l22.3,22.2c0.5,0.5,0.5,1.3,0,1.8C111.5,84.6,111.2,84.8,110.8,84.8z"/>
		
			<rect x="86.7" y="35.7" transform="matrix(0.7065 -0.7077 0.7077 0.7065 1.6316 77.9561)" class="st5" width="16.3" height="2.6"/>
		<rect x="84.6" y="44" transform="matrix(0.7068 -0.7074 0.7074 0.7068 -2.7665 83.8255)" class="st5" width="30.2" height="2.6"/>
		
			<rect x="87.2" y="52.2" transform="matrix(0.7071 -0.7071 0.7071 0.7071 -7.1556 89.6838)" class="st5" width="34.9" height="2.6"/>
		
			<rect x="94.3" y="60" transform="matrix(0.7071 -0.7071 0.7071 0.7071 -11.1029 95.7543)" class="st5" width="31.4" height="2.6"/>
		
			<rect x="101.9" y="69.1" transform="matrix(0.7071 -0.7071 0.7071 0.7071 -16.3054 101.3046)" class="st5" width="24.4" height="2.6"/>
	</g>
</g>
<g id="c_00000165944324850455298170000005892646124066188948_">
	<g>
		<path class="st5" d="M89.4,97.3c-8.8,0-17.3-3.2-23.9-9.1c-0.5-0.5-0.6-1.3-0.1-1.8c0.5-0.5,1.3-0.6,1.8-0.1
			c6.1,5.4,14,8.4,22.2,8.4c18.5,0,33.5-15,33.5-33.5c0-4.7-0.9-9.2-2.7-13.3c-0.3-0.6,0-1.4,0.7-1.7c0.7-0.3,1.4,0,1.7,0.7
			c2,4.5,3,9.3,3,14.3C125.4,81.1,109.3,97.3,89.4,97.3z"/>
		<path class="st5" d="M58.2,77.8c-0.5,0-0.9-0.3-1.2-0.7c-2.4-5-3.7-10.3-3.7-15.9c0-19.9,16.2-36,36-36c9.4,0,18.3,3.6,25,10.1
			c0.5,0.5,0.5,1.3,0,1.8c-0.5,0.5-1.3,0.5-1.8,0c-6.3-6-14.5-9.4-23.2-9.4c-18.5,0-33.5,15-33.5,33.5c0,5.2,1.1,10.2,3.4,14.8
			c0.3,0.6,0,1.4-0.6,1.7C58.6,77.8,58.4,77.8,58.2,77.8z"/>
		<path class="st5" d="M94.4,69.3c-0.3,0-0.7-0.1-0.9-0.4L82.1,57.5c-0.5-0.5-0.5-1.3,0-1.8c0.5-0.5,1.3-0.5,1.8,0l11.4,11.4
			c0.5,0.5,0.5,1.3,0,1.8C95.1,69.1,94.7,69.3,94.4,69.3z"/>
		<path class="st5" d="M64.6,77.8c-0.2,0-0.4-0.1-0.6-0.2c-0.6-0.3-0.8-1.1-0.5-1.7l10.9-19.6c0.3-0.6,1.1-0.8,1.7-0.5
			c0.6,0.3,0.8,1.1,0.5,1.7L65.7,77.2C65.5,77.6,65,77.8,64.6,77.8z"/>
		<path class="st5" d="M78.9,48.3c0.1,0,0.2,0,0.4,0c1.9,0.2,3.3,1.9,3.1,3.8c-0.2,1.8-1.7,3.2-3.5,3.2c-0.1,0-0.2,0-0.4,0
			c-1.9-0.2-3.3-1.9-3.1-3.8C75.6,49.7,77.1,48.3,78.9,48.3 M78.9,42.6L78.9,42.6c-4.7,0-8.6,3.6-9.1,8.3c-0.5,5,3.2,9.5,8.2,10.1
			c0.3,0,0.6,0,0.9,0c4.7,0,8.7-3.6,9.1-8.3c0.2-2.4-0.5-4.8-2-6.7c-1.6-1.9-3.8-3.1-6.2-3.3C79.5,42.7,79.2,42.6,78.9,42.6
			C78.9,42.6,78.9,42.6,78.9,42.6z"/>
		<path class="st5" d="M61.4,78.7c0.1,0,0.2,0,0.4,0c1.9,0.2,3.3,1.9,3.1,3.8c-0.2,1.8-1.7,3.2-3.5,3.2c-0.1,0-0.2,0-0.4,0
			c-1.9-0.2-3.3-1.9-3.1-3.8C58.2,80.1,59.7,78.7,61.4,78.7 M61.4,73L61.4,73c-4.7,0-8.6,3.6-9.1,8.3c-0.5,5,3.2,9.5,8.2,10.1
			c0.3,0,0.6,0,0.9,0c4.7,0,8.6-3.6,9.1-8.3c0.2-2.4-0.5-4.8-2-6.7c-1.6-1.9-3.8-3.1-6.2-3.3C62,73.1,61.7,73,61.4,73
			C61.4,73,61.4,73,61.4,73z"/>
		<path class="st5" d="M103.3,66.8c-0.2,0-0.4-0.1-0.6-0.2c-0.6-0.3-0.8-1.1-0.5-1.7L112.7,46c0.3-0.6,1.1-0.8,1.7-0.5
			c0.6,0.3,0.8,1.1,0.5,1.7l-10.5,18.9C104.2,66.6,103.8,66.8,103.3,66.8z"/>
		<path class="st5" d="M117.3,37.9c0.1,0,0.2,0,0.4,0c1.9,0.2,3.3,1.9,3.1,3.8c-0.2,1.8-1.7,3.2-3.5,3.2c-0.1,0-0.2,0-0.4,0
			c-1.9-0.2-3.3-1.9-3.1-3.8C114,39.2,115.5,37.9,117.3,37.9 M117.3,32.2L117.3,32.2c-4.7,0-8.6,3.6-9.1,8.3c-0.2,2.4,0.5,4.8,2,6.7
			c1.6,1.9,3.8,3.1,6.2,3.3c0.3,0,0.6,0,0.9,0c4.7,0,8.6-3.6,9.1-8.3c0.5-5-3.2-9.5-8.2-10.1C117.9,32.2,117.6,32.2,117.3,32.2
			C117.3,32.2,117.3,32.2,117.3,32.2z"/>
		<path class="st5" d="M99.9,68.2c0.1,0,0.2,0,0.4,0c1.9,0.2,3.3,1.9,3.1,3.8c-0.2,1.8-1.7,3.1-3.5,3.1c-0.1,0-0.2,0-0.4,0
			c-1.9-0.2-3.3-1.9-3.1-3.8C96.6,69.6,98.1,68.2,99.9,68.2 M99.9,62.5L99.9,62.5c-4.7,0-8.7,3.6-9.1,8.3c-0.2,2.4,0.5,4.8,2,6.7
			c1.6,1.9,3.8,3.1,6.2,3.3c0.3,0,0.6,0,0.9,0c4.7,0,8.6-3.6,9.1-8.3c0.5-5-3.2-9.5-8.2-10.1C100.5,62.6,100.2,62.5,99.9,62.5
			C99.9,62.5,99.9,62.5,99.9,62.5z"/>
	</g>
</g>
</svg>
