<?xml version="1.0" encoding="UTF-8"?>
<svg id="b" data-name="Шар 2" xmlns="http://www.w3.org/2000/svg" viewBox="0 0 33.83 33.83">
  <defs>
    <style>
      .d {
        fill: #0d0d0d;
      }

      .e {
        fill: none;
        stroke: #0d0d0d;
        stroke-linecap: round;
        stroke-linejoin: round;
        stroke-width: 2.56px;
      }
    </style>
  </defs>
  <g id="c" data-name="OBJECTS">
    <g>
      <path class="e" d="m31.26,10.7c.83,1.9,1.28,4.01,1.28,6.22,0,8.63-7,15.63-15.63,15.63-3.98,0-7.62-1.49-10.38-3.94"/>
      <path class="e" d="m2.87,23.8c-1.02-2.08-1.59-4.42-1.59-6.89C1.28,8.28,8.28,1.28,16.91,1.28c4.21,0,8.03,1.66,10.84,4.37"/>
      <line class="e" x1="14.05" y1="14.83" x2="19.16" y2="19.94"/>
      <line class="e" x1="5.75" y1="23.8" x2="10.65" y2="14.99"/>
      <path class="d" d="m12.18,11.1c.05,0,.11,0,.16,0,.86.09,1.49.86,1.41,1.72-.08.81-.76,1.42-1.56,1.42-.05,0-.11,0-.16,0-.86-.09-1.49-.86-1.41-1.72.08-.81.76-1.42,1.56-1.42m0-2.56h0c-2.13,0-3.89,1.6-4.11,3.72-.23,2.27,1.43,4.29,3.7,4.52.14.01.28.02.41.02,2.13,0,3.9-1.6,4.11-3.72.11-1.1-.21-2.17-.91-3.03-.7-.85-1.69-1.38-2.79-1.49-.14-.01-.28-.02-.41-.02h0Z"/>
      <path class="d" d="m4.34,24.77c.05,0,.11,0,.16,0,.86.09,1.49.86,1.41,1.72-.08.81-.76,1.42-1.56,1.42-.05,0-.11,0-.16,0-.86-.09-1.49-.86-1.41-1.72.08-.81.76-1.42,1.56-1.42m0-2.56h0c-2.13,0-3.89,1.6-4.11,3.72-.23,2.27,1.43,4.29,3.7,4.52.14.01.28.02.41.02,2.13,0,3.89-1.6,4.11-3.72.11-1.1-.21-2.17-.91-3.03-.7-.85-1.69-1.38-2.79-1.49-.14-.01-.28-.02-.41-.02h0Z"/>
      <line class="e" x1="23.18" y1="18.84" x2="27.9" y2="10.33"/>
      <path class="d" d="m29.47,6.39c.05,0,.11,0,.16,0,.86.09,1.49.86,1.41,1.72-.08.81-.76,1.42-1.56,1.42-.05,0-.11,0-.16,0-.86-.09-1.49-.86-1.41-1.72.08-.81.76-1.41,1.56-1.41m0-2.56h0c-2.13,0-3.89,1.6-4.11,3.72-.11,1.1.21,2.17.91,3.03.7.85,1.69,1.38,2.79,1.49.14.01.28.02.41.02,2.13,0,3.89-1.6,4.11-3.72.23-2.27-1.43-4.29-3.7-4.52-.14-.01-.28-.02-.41-.02h0Z"/>
      <path class="d" d="m21.63,20.06c.05,0,.1,0,.16,0,.86.09,1.49.86,1.41,1.72-.08.81-.76,1.41-1.56,1.41-.05,0-.11,0-.16,0-.86-.09-1.49-.86-1.41-1.72.08-.81.76-1.42,1.56-1.42m0-2.56h0c-2.13,0-3.9,1.6-4.11,3.72-.11,1.1.21,2.17.91,3.03.7.85,1.69,1.38,2.79,1.49.14.01.28.02.41.02,2.13,0,3.89-1.6,4.11-3.72.23-2.27-1.43-4.29-3.7-4.52-.14-.01-.28-.02-.41-.02h0Z"/>
    </g>
  </g>
</svg>